<svg width="15" height="15" viewBox="0 0 15 15" fill="none" xmlns="http://www.w3.org/2000/svg">
<g opacity="0.77">
<path d="M10.7792 9.56533C10.4019 9.56533 10.0537 9.69772 9.78103 9.9188L7.03799 7.93433C7.08393 7.68223 7.08393 7.4239 7.03799 7.17179L9.78103 5.18732C10.0537 5.40841 10.4019 5.54079 10.7792 5.54079C11.6556 5.54079 12.3679 4.82856 12.3679 3.95216C12.3679 3.07576 11.6556 2.36353 10.7792 2.36353C9.90283 2.36353 9.19059 3.07576 9.19059 3.95216C9.19059 4.10573 9.21177 4.25268 9.25281 4.393L6.64746 6.27951C6.26089 5.76717 5.64662 5.43488 4.95424 5.43488C3.78394 5.43488 2.83606 6.38277 2.83606 7.55306C2.83606 8.72335 3.78394 9.67124 4.95424 9.67124C5.64662 9.67124 6.26089 9.33895 6.64746 8.82662L9.25281 10.7131C9.21177 10.8534 9.19059 11.0017 9.19059 11.154C9.19059 12.0304 9.90283 12.7426 10.7792 12.7426C11.6556 12.7426 12.3679 12.0304 12.3679 11.154C12.3679 10.2776 11.6556 9.56533 10.7792 9.56533ZM10.7792 3.26375C11.1592 3.26375 11.4676 3.57221 11.4676 3.95216C11.4676 4.33211 11.1592 4.64057 10.7792 4.64057C10.3993 4.64057 10.0908 4.33211 10.0908 3.95216C10.0908 3.57221 10.3993 3.26375 10.7792 3.26375ZM4.95424 8.71806C4.31216 8.71806 3.78924 8.19513 3.78924 7.55306C3.78924 6.91099 4.31216 6.38806 4.95424 6.38806C5.59631 6.38806 6.11923 6.91099 6.11923 7.55306C6.11923 8.19513 5.59631 8.71806 4.95424 8.71806ZM10.7792 11.8424C10.3993 11.8424 10.0908 11.5339 10.0908 11.154C10.0908 10.774 10.3993 10.4656 10.7792 10.4656C11.1592 10.4656 11.4676 10.774 11.4676 11.154C11.4676 11.5339 11.1592 11.8424 10.7792 11.8424Z" fill="#E6E0FF"/>
</g>
</svg>
